<svg width="20" height="20" viewBox="0 0 20 20" fill="none" xmlns="http://www.w3.org/2000/svg">
<path d="M9.1665 3.33268C9.1665 2.41282 9.91331 1.66602 10.8332 1.66602C11.753 1.66602 12.4998 2.41282 12.4998 3.33268V4.16602C12.4998 4.62625 12.8729 4.99935 13.3332 4.99935H15.8332C16.2934 4.99935 16.6665 5.37244 16.6665 5.83268V8.33268C16.6665 8.79292 16.2934 9.16602 15.8332 9.16602H14.9998C14.4044 9.16602 13.8542 9.48368 13.5565 9.99935C13.2587 10.515 13.2587 11.1503 13.5565 11.666C13.8542 12.1817 14.4044 12.4993 14.9998 12.4993H15.8332C16.2934 12.4993 16.6665 12.8724 16.6665 13.3327V15.8327C16.6665 16.2929 16.2934 16.666 15.8332 16.666H13.3332C12.8729 16.666 12.4998 16.2929 12.4998 15.8327V14.9993C12.4998 14.0795 11.753 13.3327 10.8332 13.3327C9.91331 13.3327 9.1665 14.0795 9.1665 14.9993V15.8327C9.1665 16.2929 8.79341 16.666 8.33317 16.666H5.83317C5.37293 16.666 4.99984 16.2929 4.99984 15.8327V13.3327C4.99984 12.8724 4.62674 12.4993 4.1665 12.4993H3.33317C2.41331 12.4993 1.6665 11.7525 1.6665 10.8327C1.6665 9.91282 2.41331 9.16602 3.33317 9.16602H4.1665C4.62674 9.16602 4.99984 8.79292 4.99984 8.33268V5.83268C4.99984 5.37244 5.37293 4.99935 5.83317 4.99935H8.33317C8.79341 4.99935 9.1665 4.62625 9.1665 4.16602V3.33268V3.33268" stroke="#2454E8" stroke-width="1.66667" stroke-linecap="round" stroke-linejoin="round"/>
</svg>
